<?xml version="1.0" standalone="no"?>
<!DOCTYPE svg PUBLIC "-//W3C//DTD SVG 20010904//EN"
 "http://www.w3.org/TR/2001/REC-SVG-20010904/DTD/svg10.dtd">
<svg version="1.0" xmlns="http://www.w3.org/2000/svg"
 width="256.000000pt" height="256.000000pt" viewBox="0 0 256.000000 256.000000"
 preserveAspectRatio="xMidYMid meet">

<g transform="translate(0.000000,256.000000) scale(0.100000,-0.100000)"
fill="#000000" stroke="none">
<path d="M580 1265 l0 -975 705 0 705 0 0 975 0 975 -705 0 -705 0 0 -975z
m1340 0 l0 -905 -635 0 -635 0 0 905 0 905 635 0 635 0 0 -905z"/>
<path d="M955 1987 c-3 -7 -4 -145 -3 -307 l3 -295 338 -3 337 -2 0 310 0 310
-335 0 c-261 0 -337 -3 -340 -13z m255 -222 l74 -75 -74 -75 c-41 -41 -78 -75
-82 -75 -21 0 -2 30 54 87 l62 63 -62 63 c-56 57 -75 87 -54 87 4 0 41 -34 82
-75z m255 -210 c0 -6 -34 -11 -77 -13 -66 -2 -78 0 -78 13 0 13 12 15 78 13
43 -2 77 -7 77 -13z"/>
<path d="M870 783 l0 -248 95 95 95 95 95 -95 95 -95 0 248 0 247 -45 0 -45 0
0 -135 c0 -74 -3 -135 -7 -135 -4 0 -27 19 -50 42 l-43 42 -50 -49 -50 -49 0
142 0 142 -45 0 -45 0 0 -247z"/>
<path d="M1350 1006 c0 -14 20 -58 44 -98 l45 -73 -45 -3 -45 -3 3 -147 3
-147 42 -3 42 -3 3 103 3 103 80 5 c101 7 141 28 173 93 22 43 23 50 10 88 -8
27 -27 54 -51 73 -38 31 -40 31 -173 34 l-134 4 0 -26z m248 -82 c40 -28 24
-80 -28 -86 -18 -2 -30 8 -57 50 l-34 52 48 0 c28 0 58 -7 71 -16z"/>
</g>
</svg>
